# xmcd
#
# Track frame offsets:
#	182
#	12942
#	30180
#	46325
#	61917
#	81607
#	100512
#	132585
#	154482
#	179962
#	202230
#	216907
#	236322
#	263135
#
# Disc length: 3929
#
# Revision: 1
# Processed by: cddbd v1.5.1PL0 Copyright (c) Steve Scherf et al.
# Submitted via: CDex 1.51
# Normalized: r0:TDELIM( - )
#
DISCID=c90f570e
DTITLE=Various Artist - The Best in Jazz
DYEAR=1900
DGENRE=Jazz
TTITLE0=Stan Getz and Joao' Gilberto - The Girl From Ipanema
TTITLE1=Count Basie - April in Paris
TTITLE2=Ella Fitzgerald - Let's Do It
TTITLE3=Charile Parker and Dizzy Gillespie - Bloomdido
TTITLE4=Joe Henderson - I Loves You Porgy
TTITLE5=Dee Dee Bridgewater - Stairway to the Stars
TTITLE6=John McLaughlin - Mr. DC
TTITLE7=Chris Botti - Regroovable
TTITLE8=Eric Marienthal - Last Days of Summer
TTITLE9=Philippe Saisse - Moanin
TTITLE10=Pete Belasco - All I Want
TTITLE11=Mark Ledford - The Way I Feel
TTITLE12=Marc Johnson with Bill Frisell, Pat Metheny and Joey Baron - Summer Running
TTITLE13=Courtney Pine - Modern Day Jazz
EXTD=
EXTT0=
EXTT1=
EXTT2=
EXTT3=
EXTT4=
EXTT5=
EXTT6=
EXTT7=
EXTT8=
EXTT9=
EXTT10=
EXTT11=
EXTT12=
EXTT13=
PLAYORDER=
